<!DOCTYPE svg PUBLIC "-//W3C//DTD SVG 20010904//EN" "http://www.w3.org/TR/2001/REC-SVG-20010904/DTD/svg10.dtd">
<svg version="1.0" xmlns="http://www.w3.org/2000/svg" width="800px" height="600px" viewBox="0 0 8000 6000" preserveAspectRatio="xMidYMid meet">
<g id="layer101" fill="#94a0ab" stroke="none">
 <path d="M205 5868 c-27 -15 -65 -50 -65 -59 0 -5 9 -13 19 -19 16 -8 25 -5 47 15 15 14 38 25 50 25 19 0 24 5 24 25 0 21 -5 25 -27 25 -16 0 -37 -6 -48 -12z"/>
 <path d="M360 5860 c0 -18 7 -20 80 -20 73 0 80 2 80 20 0 18 -7 20 -80 20 -73 0 -80 -2 -80 -20z"/>
 <path d="M600 5860 c0 -18 7 -20 80 -20 73 0 80 2 80 20 0 18 -7 20 -80 20 -73 0 -80 -2 -80 -20z"/>
 <path d="M840 5860 c0 -18 7 -20 80 -20 73 0 80 2 80 20 0 18 -7 20 -80 20 -73 0 -80 -2 -80 -20z"/>
 <path d="M1080 5860 c0 -18 7 -20 80 -20 73 0 80 2 80 20 0 18 -7 20 -80 20 -73 0 -80 -2 -80 -20z"/>
 <path d="M1320 5860 c0 -18 7 -20 80 -20 73 0 80 2 80 20 0 18 -7 20 -80 20 -73 0 -80 -2 -80 -20z"/>
 <path d="M1560 5860 c0 -18 7 -20 80 -20 73 0 80 2 80 20 0 18 -7 20 -80 20 -73 0 -80 -2 -80 -20z"/>
 <path d="M1800 5860 c0 -18 7 -20 80 -20 73 0 80 2 80 20 0 18 -7 20 -80 20 -73 0 -80 -2 -80 -20z"/>
 <path d="M2040 5860 c0 -18 7 -20 80 -20 73 0 80 2 80 20 0 18 -7 20 -80 20 -73 0 -80 -2 -80 -20z"/>
 <path d="M2280 5860 c0 -18 7 -20 80 -20 73 0 80 2 80 20 0 18 -7 20 -80 20 -73 0 -80 -2 -80 -20z"/>
 <path d="M2520 5860 c0 -18 7 -20 80 -20 73 0 80 2 80 20 0 18 -7 20 -80 20 -73 0 -80 -2 -80 -20z"/>
 <path d="M2760 5860 c0 -18 7 -20 80 -20 73 0 80 2 80 20 0 18 -7 20 -80 20 -73 0 -80 -2 -80 -20z"/>
 <path d="M3000 5860 c0 -18 7 -20 80 -20 73 0 80 2 80 20 0 18 -7 20 -80 20 -73 0 -80 -2 -80 -20z"/>
 <path d="M3240 5860 c0 -18 7 -20 80 -20 73 0 80 2 80 20 0 18 -7 20 -80 20 -73 0 -80 -2 -80 -20z"/>
 <path d="M3480 5860 c0 -18 7 -20 80 -20 73 0 80 2 80 20 0 18 -7 20 -80 20 -73 0 -80 -2 -80 -20z"/>
 <path d="M3720 5860 c0 -18 7 -20 80 -20 73 0 80 2 80 20 0 18 -7 20 -80 20 -73 0 -80 -2 -80 -20z"/>
 <path d="M3960 5860 c0 -18 7 -20 80 -20 73 0 80 2 80 20 0 18 -7 20 -80 20 -73 0 -80 -2 -80 -20z"/>
 <path d="M4200 5860 c0 -18 7 -20 80 -20 73 0 80 2 80 20 0 18 -7 20 -80 20 -73 0 -80 -2 -80 -20z"/>
 <path d="M4440 5860 c0 -18 7 -20 80 -20 73 0 80 2 80 20 0 18 -7 20 -80 20 -73 0 -80 -2 -80 -20z"/>
 <path d="M4680 5860 c0 -18 7 -20 80 -20 73 0 80 2 80 20 0 18 -7 20 -80 20 -73 0 -80 -2 -80 -20z"/>
 <path d="M4920 5860 c0 -18 7 -20 80 -20 73 0 80 2 80 20 0 18 -7 20 -80 20 -73 0 -80 -2 -80 -20z"/>
 <path d="M5160 5860 c0 -18 7 -20 80 -20 73 0 80 2 80 20 0 18 -7 20 -80 20 -73 0 -80 -2 -80 -20z"/>
 <path d="M5400 5860 c0 -18 7 -20 80 -20 73 0 80 2 80 20 0 18 -7 20 -80 20 -73 0 -80 -2 -80 -20z"/>
 <path d="M5640 5860 c0 -18 7 -20 80 -20 73 0 80 2 80 20 0 18 -7 20 -80 20 -73 0 -80 -2 -80 -20z"/>
 <path d="M5880 5860 c0 -18 7 -20 80 -20 73 0 80 2 80 20 0 18 -7 20 -80 20 -73 0 -80 -2 -80 -20z"/>
 <path d="M6120 5860 c0 -18 7 -20 80 -20 73 0 80 2 80 20 0 18 -7 20 -80 20 -73 0 -80 -2 -80 -20z"/>
 <path d="M6360 5860 c0 -18 7 -20 80 -20 73 0 80 2 80 20 0 18 -7 20 -80 20 -73 0 -80 -2 -80 -20z"/>
 <path d="M6600 5860 c0 -18 7 -20 80 -20 73 0 80 2 80 20 0 18 -7 20 -80 20 -73 0 -80 -2 -80 -20z"/>
 <path d="M6840 5860 c0 -18 7 -20 80 -20 73 0 80 2 80 20 0 18 -7 20 -80 20 -73 0 -80 -2 -80 -20z"/>
 <path d="M7080 5860 c0 -18 7 -20 80 -20 73 0 80 2 80 20 0 18 -7 20 -80 20 -73 0 -80 -2 -80 -20z"/>
 <path d="M7320 5860 c0 -18 7 -20 80 -20 73 0 80 2 80 20 0 18 -7 20 -80 20 -73 0 -80 -2 -80 -20z"/>
 <path d="M7560 5861 c0 -16 11 -19 98 -23 68 -3 105 -10 123 -21 24 -16 27 -16 43 2 18 19 17 21 -15 40 -29 18 -51 21 -141 21 -99 0 -108 -2 -108 -19z"/>
 <path d="M7844 5762 c-8 -5 -10 -33 -6 -84 4 -68 7 -78 23 -78 17 0 19 9 19 85 0 85 -6 97 -36 77z"/>
 <path d="M120 5655 c0 -78 2 -85 20 -85 18 0 20 7 20 79 0 75 -6 91 -36 91 -2 0 -4 -38 -4 -85z"/>
 <path d="M7840 5445 c0 -78 2 -85 20 -85 18 0 20 7 20 85 0 78 -2 85 -20 85 -18 0 -20 -7 -20 -85z"/>
 <path d="M120 5415 c0 -78 2 -85 20 -85 18 0 20 7 20 85 0 78 -2 85 -20 85 -18 0 -20 -7 -20 -85z"/>
 <path d="M7840 5205 c0 -78 2 -85 20 -85 18 0 20 7 20 85 0 78 -2 85 -20 85 -18 0 -20 -7 -20 -85z"/>
 <path d="M120 5175 c0 -78 2 -85 20 -85 18 0 20 7 20 85 0 78 -2 85 -20 85 -18 0 -20 -7 -20 -85z"/>
 <path d="M7840 4965 c0 -78 2 -85 20 -85 18 0 20 7 20 85 0 78 -2 85 -20 85 -18 0 -20 -7 -20 -85z"/>
 <path d="M120 4935 c0 -78 2 -85 20 -85 18 0 20 7 20 85 0 78 -2 85 -20 85 -18 0 -20 -7 -20 -85z"/>
 <path d="M7840 4725 c0 -78 2 -85 20 -85 18 0 20 7 20 85 0 78 -2 85 -20 85 -18 0 -20 -7 -20 -85z"/>
 <path d="M120 4695 c0 -78 2 -85 20 -85 18 0 20 7 20 85 0 78 -2 85 -20 85 -18 0 -20 -7 -20 -85z"/>
 <path d="M7840 4485 c0 -78 2 -85 20 -85 18 0 20 7 20 85 0 78 -2 85 -20 85 -18 0 -20 -7 -20 -85z"/>
 <path d="M120 4455 c0 -78 2 -85 20 -85 18 0 20 7 20 85 0 78 -2 85 -20 85 -18 0 -20 -7 -20 -85z"/>
 <path d="M2110 4385 c0 -9 4 -14 9 -11 4 3 16 -3 25 -13 16 -17 15 -22 -5 -72 -41 -105 -40 -99 -20 -99 13 0 24 15 38 52 l20 52 17 -52 c13 -38 23 -52 36 -52 18 0 18 4 -6 68 -44 116 -56 137 -86 140 -21 2 -28 -1 -28 -13z"/>
 <path d="M4880 4380 c0 -7 160 -10 460 -10 300 0 460 3 460 10 0 7 -160 10 -460 10 -300 0 -460 -3 -460 -10z"/>
 <path d="M4424 4354 c3 -9 6 -24 6 -35 0 -12 7 -19 20 -19 23 0 24 8 10 44 -5 14 -17 26 -26 26 -11 0 -14 -5 -10 -16z"/>
 <path d="M2266 4318 c-9 -12 -16 -36 -16 -53 0 -48 25 -75 69 -75 49 0 71 24 71 77 0 50 -23 73 -73 73 -26 0 -40 -6 -51 -22z m82 -20 c17 -17 15 -54 -4 -72 -21 -22 -31 -20 -50 9 -30 46 17 100 54 63z"/>
 <path d="M2432 4328 c-18 -18 -16 -138 3 -138 10 0 15 15 17 58 3 53 5 57 28 57 23 0 25 -4 28 -57 3 -50 6 -58 22 -58 18 0 20 7 20 74 l0 73 -53 2 c-29 0 -59 -5 -65 -11z"/>
 <path d="M2580 4266 l0 -73 45 -1 c33 -1 45 3 45 13 0 8 -9 15 -20 15 -25 0 -40 29 -40 79 0 30 -4 41 -15 41 -12 0 -15 -15 -15 -74z"/>
 <path d="M2760 4276 c0 -42 -4 -66 -12 -69 -10 -3 -9 -8 4 -18 9 -8 18 -23 20 -34 3 -17 11 -20 53 -20 39 0 50 4 53 18 2 10 -3 17 -12 17 -9 0 -16 -4 -16 -9 0 -4 -11 -6 -25 -3 -27 5 -35 32 -10 32 8 0 15 5 15 10 0 6 -7 10 -15 10 -12 0 -15 14 -15 65 0 58 -2 65 -20 65 -18 0 -20 -7 -20 -64z"/>
 <path d="M2850 4265 c0 -60 3 -75 15 -75 12 0 15 15 15 75 0 60 -3 75 -15 75 -12 0 -15 -15 -15 -75z"/>
 <path d="M2920 4235 c0 -87 3 -105 15 -105 12 0 15 18 15 105 0 87 -3 105 -15 105 -12 0 -15 -18 -15 -105z"/>
 <path d="M3003 4332 c-31 -20 -37 -96 -10 -129 12 -16 79 -17 95 -1 7 7 12 25 12 40 0 27 -2 28 -46 28 -38 0 -45 3 -42 18 3 13 13 17 46 17 32 0 42 4 40 15 -3 17 -74 26 -95 12z m67 -91 c0 -5 -7 -14 -15 -21 -12 -10 -18 -10 -30 0 -23 19 -18 30 15 30 17 0 30 -4 30 -9z"/>
 <path d="M3127 4333 c-19 -18 -5 -31 27 -26 49 8 54 -13 9 -34 -67 -32 -53 -83 24 -83 31 0 43 4 40 13 -2 6 -17 12 -32 12 -41 0 -41 18 0 38 37 18 47 51 23 75 -13 13 -80 17 -91 5z"/>
 <path d="M3337 4333 c-4 -3 -7 -32 -7 -64 0 -36 -5 -59 -12 -62 -9 -4 -10 -8 -2 -14 6 -4 13 -16 17 -25 9 -24 27 -23 27 2 0 13 7 20 20 20 11 0 20 5 20 10 0 6 -9 10 -20 10 -17 0 -20 7 -20 50 0 43 3 50 20 50 11 0 20 7 20 15 0 15 -50 22 -63 8z"/>
 <path d="M3426 4318 c-9 -12 -16 -36 -16 -53 0 -48 25 -75 69 -75 49 0 71 24 71 77 0 50 -23 73 -73 73 -26 0 -40 -6 -51 -22z m82 -20 c17 -17 15 -54 -4 -72 -21 -22 -31 -20 -50 9 -30 46 17 100 54 63z"/>
 <path d="M3630 4327 c0 -28 69 -182 83 -185 10 -2 26 25 51 88 20 49 36 95 36 100 0 23 -32 8 -41 -20 -9 -26 -16 -30 -45 -30 -30 0 -37 4 -45 30 -11 30 -39 42 -39 17z m99 -89 c0 -7 -4 -21 -7 -31 -6 -15 -9 -13 -19 13 -10 27 -9 30 8 30 10 0 19 -6 18 -12z"/>
 <path d="M3810 4322 c0 -15 6 -17 35 -14 45 5 45 -10 -1 -37 -29 -17 -35 -26 -32 -49 3 -25 7 -27 51 -30 38 -3 47 0 47 13 0 12 -8 15 -32 13 -43 -4 -47 18 -5 31 38 13 52 42 36 73 -14 26 -99 26 -99 0z"/>
 <path d="M3937 4333 c-20 -19 -5 -31 33 -26 51 7 54 -12 6 -32 -38 -16 -54 -48 -36 -70 18 -21 100 -20 100 1 0 11 -8 14 -32 12 -43 -4 -45 15 -3 35 28 13 35 22 35 46 0 17 -6 31 -16 35 -21 8 -79 8 -87 -1z"/>
 <path d="M4076 4318 c-9 -12 -16 -36 -16 -53 0 -49 25 -75 70 -75 42 0 60 18 60 59 0 18 -6 21 -50 21 -48 0 -50 1 -39 21 8 17 18 20 45 17 28 -3 34 -1 34 14 0 29 -84 25 -104 -4z m78 -82 c-9 -22 -32 -27 -49 -10 -21 22 -19 24 20 24 26 0 33 -4 29 -14z"/>
 <path d="M4227 4333 c-4 -3 -7 -32 -7 -64 0 -36 -5 -59 -12 -62 -9 -4 -10 -8 -2 -14 6 -4 13 -16 17 -25 9 -24 27 -23 27 2 0 13 7 20 20 20 11 0 20 5 20 10 0 6 -9 10 -20 10 -17 0 -20 7 -20 50 0 43 3 50 20 50 11 0 20 7 20 15 0 15 -50 22 -63 8z"/>
 <path d="M4300 4321 c0 -17 5 -19 34 -14 49 8 54 -13 9 -34 -67 -32 -53 -83 24 -83 31 0 43 4 40 13 -2 6 -17 12 -32 12 -41 0 -41 18 0 38 25 12 35 23 35 40 0 34 -19 47 -67 47 -36 0 -43 -3 -43 -19z"/>
 <path d="M4587 4327 c-26 -18 -33 -81 -13 -112 21 -31 84 -35 109 -7 23 26 22 94 -1 115 -22 20 -71 22 -95 4z m76 -38 c13 -21 2 -65 -19 -73 -33 -13 -58 31 -43 73 10 26 46 26 62 0z"/>
 <path d="M4730 4266 l0 -73 45 -1 c33 -1 45 3 45 13 0 8 -8 15 -18 15 -30 0 -42 21 -42 72 0 36 -4 48 -15 48 -12 0 -15 -15 -15 -74z"/>
 <path d="M4910 4233 c0 -85 3 -103 15 -103 10 0 15 10 15 30 0 28 2 30 40 30 46 0 60 18 60 78 0 53 -23 73 -83 71 l-47 -2 0 -104z m94 61 c18 -46 -10 -92 -45 -74 -19 11 -28 68 -12 83 12 13 51 7 57 -9z"/>
 <path d="M5070 4266 l0 -73 45 -1 c33 -1 45 3 45 13 0 8 -8 15 -18 15 -30 0 -42 21 -42 72 0 36 -4 48 -15 48 -12 0 -15 -15 -15 -74z"/>
 <path d="M5186 4318 c-22 -31 -20 -91 2 -111 10 -10 35 -17 55 -17 42 0 67 28 67 75 0 49 -25 75 -70 75 -29 0 -43 -6 -54 -22z m86 -33 c9 -19 8 -29 -6 -50 -9 -14 -21 -25 -26 -25 -16 0 -40 31 -40 54 0 47 53 63 72 21z"/>
 <path d="M5337 4273 c-21 -82 -21 -83 -2 -83 8 0 19 17 25 43 6 23 12 46 13 51 2 4 9 -15 16 -43 17 -66 44 -71 62 -11 7 22 16 40 20 40 4 0 10 -18 14 -40 5 -31 11 -40 27 -40 12 0 18 5 15 13 -3 7 -13 41 -22 75 -14 47 -22 62 -36 62 -14 0 -22 -12 -30 -45 -13 -51 -19 -50 -34 3 -7 25 -17 38 -30 40 -17 2 -23 -8 -38 -65z"/>
 <path d="M5537 4333 c-20 -19 -5 -31 33 -26 51 7 53 -11 5 -34 -67 -32 -54 -83 21 -83 33 0 44 4 44 16 0 11 -8 14 -32 12 -42 -4 -46 15 -6 33 25 10 34 21 36 43 2 16 -2 32 -10 37 -16 10 -82 12 -91 2z"/>
 <path d="M5681 4321 c-25 -25 -28 -77 -5 -109 11 -16 25 -22 54 -22 42 0 60 18 60 59 0 18 -6 21 -50 21 -49 0 -50 1 -39 21 9 18 17 21 51 16 33 -4 39 -3 36 11 -5 27 -81 29 -107 3z m79 -80 c0 -5 -7 -14 -15 -21 -12 -10 -18 -10 -30 0 -23 19 -18 30 15 30 17 0 30 -4 30 -9z"/>
 <path d="M5815 4330 c-4 -7 -3 -16 3 -22 14 -14 45 -2 40 15 -6 16 -34 21 -43 7z"/>
 <path d="M7840 4245 c0 -78 2 -85 20 -85 18 0 20 7 20 85 0 78 -2 85 -20 85 -18 0 -20 -7 -20 -85z"/>
 <path d="M120 4215 c0 -78 2 -85 20 -85 18 0 20 7 20 85 0 78 -2 85 -20 85 -18 0 -20 -7 -20 -85z"/>
 <path d="M7840 4005 c0 -78 2 -85 20 -85 18 0 20 7 20 85 0 78 -2 85 -20 85 -18 0 -20 -7 -20 -85z"/>
 <path d="M120 3975 c0 -78 2 -85 20 -85 18 0 20 7 20 85 0 78 -2 85 -20 85 -18 0 -20 -7 -20 -85z"/>
 <path d="M7840 3765 c0 -78 2 -85 20 -85 18 0 20 7 20 85 0 78 -2 85 -20 85 -18 0 -20 -7 -20 -85z"/>
 <path d="M120 3735 c0 -78 2 -85 20 -85 18 0 20 7 20 85 0 78 -2 85 -20 85 -18 0 -20 -7 -20 -85z"/>
 <path d="M3140 3771 c-78 -25 -118 -61 -152 -136 -33 -74 -33 -228 1 -303 29 -65 89 -118 155 -137 84 -25 236 -17 285 14 12 8 12 16 -3 55 -10 25 -21 48 -25 50 -4 3 -27 -2 -52 -10 -97 -34 -193 -1 -230 80 -38 84 -15 222 44 261 31 20 87 30 121 21 24 -6 26 -11 26 -61 l0 -55 -50 0 -50 0 0 -55 0 -55 115 0 115 0 0 154 0 154 -32 12 c-40 14 -234 23 -268 11z"/>
 <path d="M3831 3753 c-64 -33 -91 -75 -91 -141 0 -58 21 -104 62 -137 l34 -27 -23 -46 c-62 -123 3 -222 147 -222 102 0 157 36 167 108 8 57 -12 106 -60 147 l-41 36 47 47 c53 52 56 51 79 -25 l12 -43 68 0 c37 0 68 4 68 10 0 21 -42 121 -66 156 l-26 38 56 54 c31 29 56 56 56 58 0 2 -35 4 -78 4 -66 0 -82 -3 -97 -20 -17 -19 -18 -19 -59 2 -29 15 -65 23 -121 26 -73 3 -85 1 -134 -25z m185 -93 l28 -11 -62 -62 -63 -62 -19 25 c-57 73 21 146 116 110z m-32 -299 c20 -21 26 -35 21 -50 -12 -38 -78 -39 -90 -1 -6 19 19 80 33 80 5 0 21 -13 36 -29z"/>
 <path d="M5866 3764 c-62 -22 -102 -59 -133 -121 -25 -53 -28 -68 -28 -163 0 -88 4 -113 23 -155 47 -102 119 -145 246 -145 107 0 152 15 207 70 57 57 74 112 74 240 0 84 -3 102 -28 153 -47 95 -125 138 -251 136 -39 0 -89 -7 -110 -15z m190 -119 c38 -24 64 -90 64 -160 0 -85 -15 -128 -57 -165 -33 -30 -41 -32 -90 -28 -66 6 -105 39 -123 104 -17 58 -8 164 17 206 37 64 126 85 189 43z"/>
 <path d="M1300 3480 l0 -292 153 4 c172 4 204 14 269 86 48 53 63 101 63 202 -1 132 -41 206 -140 258 -46 25 -61 27 -197 30 l-148 4 0 -292z m268 161 c47 -24 72 -67 79 -136 7 -70 -11 -136 -48 -171 -26 -24 -40 -29 -99 -32 l-70 -4 0 181 0 181 50 0 c30 0 66 -8 88 -19z"/>
 <path d="M1900 3479 l0 -291 148 4 c134 3 150 5 185 26 54 35 70 71 65 155 -4 66 -5 71 -46 108 -23 22 -42 42 -42 45 0 2 34 55 75 116 73 110 74 111 85 84 5 -15 47 -132 91 -259 45 -128 86 -244 91 -259 10 -27 12 -28 88 -28 76 0 78 1 88 28 54 149 192 546 192 553 0 5 -31 9 -70 9 l-69 0 -19 -62 -18 -63 -103 0 -103 0 -20 63 -19 63 -141 -3 -141 -3 -66 -107 c-58 -94 -69 -107 -93 -108 l-28 0 0 110 0 110 -65 0 -65 0 0 -291z m777 -59 c-17 -55 -34 -100 -37 -100 -4 0 -31 85 -58 183 -4 15 4 17 60 17 l65 0 -30 -100z m-533 -1 c32 -25 35 -70 6 -99 -15 -15 -33 -20 -70 -20 l-50 0 0 70 0 70 44 0 c29 0 52 -7 70 -21z"/>
 <path d="M4600 3480 l0 -292 153 4 c170 4 206 15 264 81 50 58 66 112 61 219 -4 103 -20 149 -72 200 -58 59 -105 72 -263 76 l-143 4 0 -292z m278 153 c48 -36 66 -80 66 -158 0 -121 -48 -175 -156 -175 l-58 0 0 181 0 181 60 -4 c40 -3 70 -11 88 -25z"/>
 <path d="M5190 3480 l0 -290 138 0 c123 0 143 2 182 23 63 31 90 76 90 146 0 63 -21 106 -69 142 l-30 22 80 118 c43 65 79 121 79 124 0 3 -33 5 -72 5 l-73 0 -66 -108 c-54 -88 -70 -108 -92 -110 l-27 -3 0 110 0 111 -70 0 -70 0 0 -290z m262 -70 c25 -30 23 -56 -7 -85 -18 -19 -35 -25 -70 -25 l-45 0 0 71 0 72 52 -5 c38 -4 57 -12 70 -28z"/>
 <path d="M6370 3480 l0 -290 138 0 c123 0 142 2 182 23 145 73 105 311 -58 346 -29 6 -71 11 -92 11 l-40 0 0 100 0 100 -65 0 -65 0 0 -290z m212 -30 c42 -12 58 -34 58 -79 0 -47 -30 -71 -90 -71 l-50 0 0 80 c0 90 2 92 82 70z"/>
 <path d="M7840 3525 c0 -78 2 -85 20 -85 18 0 20 7 20 85 0 78 -2 85 -20 85 -18 0 -20 -7 -20 -85z"/>
 <path d="M120 3495 c0 -78 2 -85 20 -85 18 0 20 7 20 85 0 78 -2 85 -20 85 -18 0 -20 -7 -20 -85z"/>
 <path d="M7840 3285 c0 -78 2 -85 20 -85 18 0 20 7 20 85 0 78 -2 85 -20 85 -18 0 -20 -7 -20 -85z"/>
 <path d="M120 3255 c0 -78 2 -85 20 -85 18 0 20 7 20 85 0 78 -2 85 -20 85 -18 0 -20 -7 -20 -85z"/>
 <path d="M7840 3045 c0 -78 2 -85 20 -85 18 0 20 7 20 85 0 78 -2 85 -20 85 -18 0 -20 -7 -20 -85z"/>
 <path d="M120 3015 c0 -78 2 -85 20 -85 18 0 20 7 20 85 0 78 -2 85 -20 85 -18 0 -20 -7 -20 -85z"/>
 <path d="M3565 2975 c-140 -49 -144 -272 -5 -326 23 -8 25 -14 22 -57 -7 -105 78 -188 185 -180 49 4 53 3 64 -24 17 -41 100 -112 147 -126 106 -32 225 -2 291 73 47 54 64 99 66 177 1 67 2 68 41 97 50 36 76 88 82 164 8 104 -40 183 -126 207 -20 5 -90 10 -154 10 l-118 0 0 -90 0 -90 56 0 56 0 -41 -47 c-22 -27 -65 -75 -96 -108 l-55 -60 -95 100 c-52 55 -95 103 -95 108 0 4 25 7 55 7 l55 0 0 90 0 90 -147 0 c-101 -1 -161 -5 -188 -15z"/>
 <path d="M7840 2805 c0 -78 2 -85 20 -85 18 0 20 7 20 85 0 78 -2 85 -20 85 -18 0 -20 -7 -20 -85z"/>
 <path d="M120 2775 c0 -78 2 -85 20 -85 18 0 20 7 20 85 0 78 -2 85 -20 85 -18 0 -20 -7 -20 -85z"/>
 <path d="M7840 2565 c0 -78 2 -85 20 -85 18 0 20 7 20 85 0 78 -2 85 -20 85 -18 0 -20 -7 -20 -85z"/>
 <path d="M120 2535 c0 -78 2 -85 20 -85 18 0 20 7 20 85 0 78 -2 85 -20 85 -18 0 -20 -7 -20 -85z"/>
 <path d="M2702 2573 c-15 -28 -192 -656 -192 -679 0 -12 6 -26 13 -32 21 -17 675 -201 696 -195 11 3 23 12 26 21 22 56 185 647 185 671 0 16 -6 33 -12 38 -18 14 -652 193 -682 193 -14 0 -29 -8 -34 -17z m369 -131 l307 -87 -90 -315 c-49 -173 -90 -315 -91 -316 -3 -4 -617 173 -623 179 -9 9 169 627 180 627 6 0 149 -39 317 -88z"/>
 <path d="M2699 2142 l-56 -197 251 -72 c138 -40 254 -73 257 -73 5 0 27 73 94 316 l22 82 -248 71 c-137 39 -252 71 -256 71 -4 0 -33 -89 -64 -198z m117 -37 c26 -58 52 -105 56 -105 5 0 44 21 88 46 l79 46 38 -30 38 -30 43 25 43 26 -6 -24 c-25 -100 -63 -214 -71 -214 -28 0 -434 122 -434 130 -1 22 65 243 71 239 3 -2 28 -51 55 -109z m72 14 c15 -27 21 -29 52 -24 l35 6 -44 -26 c-24 -14 -45 -24 -46 -23 -6 7 -55 108 -55 113 0 15 44 -20 58 -46z"/>
 <path d="M4795 2451 c-120 -65 -225 -123 -232 -130 -7 -6 -13 -20 -13 -30 0 -25 152 -312 168 -319 8 -2 20 2 28 9 12 13 4 34 -61 158 -42 79 -74 145 -72 147 6 7 421 224 426 224 4 0 51 -88 107 -195 l101 -194 -91 -47 c-50 -26 -93 -48 -95 -50 -2 -1 19 -46 47 -98 l50 -95 -99 -51 c-54 -28 -101 -55 -104 -60 -3 -5 0 -18 7 -29 12 -20 16 -18 128 40 63 33 118 64 123 68 9 9 97 290 97 311 0 16 -206 417 -229 444 -7 9 -25 16 -40 15 -14 -1 -125 -54 -246 -118z m428 -473 c-19 -62 -36 -114 -38 -116 -2 -2 -21 30 -42 71 l-39 74 76 41 c41 23 76 42 77 42 0 0 -15 -51 -34 -112z"/>
 <path d="M4853 2346 c-84 -44 -153 -84 -153 -89 -5 -27 11 -27 60 0 30 17 103 56 162 87 78 41 106 61 101 71 -3 8 -8 15 -12 14 -3 -1 -74 -38 -158 -83z"/>
 <path d="M7840 2325 c0 -78 2 -85 20 -85 18 0 20 7 20 85 0 78 -2 85 -20 85 -18 0 -20 -7 -20 -85z"/>
 <path d="M120 2295 c0 -78 2 -85 20 -85 18 0 20 7 20 85 0 78 -2 85 -20 85 -18 0 -20 -7 -20 -85z"/>
 <path d="M4885 2281 c-82 -43 -150 -85 -150 -92 0 -8 5 -14 10 -14 22 0 315 160 315 172 0 23 -22 14 -175 -66z"/>
 <path d="M4913 2216 c-138 -73 -174 -101 -132 -101 29 0 317 159 312 172 -3 7 -10 12 -17 12 -6 -1 -80 -38 -163 -83z"/>
 <path d="M7840 2085 c0 -78 2 -85 20 -85 18 0 20 7 20 85 0 78 -2 85 -20 85 -18 0 -20 -7 -20 -85z"/>
 <path d="M120 2055 c0 -78 2 -85 20 -85 18 0 20 7 20 85 0 78 -2 85 -20 85 -18 0 -20 -7 -20 -85z"/>
 <path d="M3656 1973 c-26 -124 -124 -739 -118 -744 7 -7 716 -129 748 -129 17 0 26 40 83 380 36 209 61 383 58 386 -5 6 -733 134 -759 134 -3 0 -9 -12 -12 -27z m399 -108 c154 -26 284 -51 288 -55 5 -4 -15 -149 -43 -322 l-52 -314 -317 54 c-174 30 -317 55 -318 56 -3 2 97 606 103 625 3 9 14 12 32 8 15 -3 153 -26 307 -52z"/>
 <path d="M3787 1753 c-14 -47 -58 -345 -54 -357 3 -8 35 -19 75 -26 122 -22 182 19 182 124 0 41 -5 53 -33 81 -20 20 -48 36 -71 40 -42 8 -40 -3 -20 110 5 30 3 35 -12 35 -11 0 -29 3 -41 6 -15 4 -23 1 -26 -13z m88 -215 c30 -13 41 -48 25 -77 -8 -15 -20 -21 -46 -21 l-35 0 7 48 c10 68 10 68 49 50z"/>
 <path d="M4031 1703 c3 -49 12 -58 64 -58 37 0 50 -4 50 -14 0 -9 -19 -20 -50 -27 -59 -15 -85 -43 -85 -91 0 -51 42 -89 108 -98 28 -4 56 -4 62 0 5 3 10 22 10 41 0 31 -2 35 -21 29 -28 -9 -69 2 -69 19 0 9 20 19 50 26 79 19 113 82 74 138 -24 35 -68 52 -134 52 -51 0 -60 -3 -59 -17z"/>
 <path d="M4728 1929 c-21 -11 -38 -23 -38 -27 0 -4 12 -25 25 -47 14 -22 25 -43 25 -47 0 -4 -22 -19 -50 -33 -27 -14 -50 -28 -50 -31 0 -13 44 -84 52 -84 5 0 26 9 48 20 22 11 43 20 47 20 5 0 19 -20 33 -45 14 -25 28 -45 33 -45 4 0 26 9 47 20 l40 20 -25 50 c-14 27 -25 52 -25 54 0 3 22 17 50 31 l50 25 -22 45 c-12 25 -26 45 -30 45 -5 0 -30 -11 -57 -24 l-48 -25 -23 50 c-13 27 -28 49 -34 49 -6 -1 -28 -10 -48 -21z"/>
 <path d="M7840 1845 c0 -78 2 -85 20 -85 18 0 20 7 20 85 0 78 -2 85 -20 85 -18 0 -20 -7 -20 -85z"/>
 <path d="M120 1815 c0 -78 2 -85 20 -85 18 0 20 7 20 85 0 78 -2 85 -20 85 -18 0 -20 -7 -20 -85z"/>
 <path d="M7840 1605 c0 -78 2 -85 20 -85 18 0 20 7 20 85 0 78 -2 85 -20 85 -18 0 -20 -7 -20 -85z"/>
 <path d="M120 1575 c0 -78 2 -85 20 -85 18 0 20 7 20 85 0 78 -2 85 -20 85 -18 0 -20 -7 -20 -85z"/>
 <path d="M7840 1365 c0 -78 2 -85 20 -85 18 0 20 7 20 85 0 78 -2 85 -20 85 -18 0 -20 -7 -20 -85z"/>
 <path d="M120 1335 c0 -78 2 -85 20 -85 18 0 20 7 20 85 0 78 -2 85 -20 85 -18 0 -20 -7 -20 -85z"/>
 <path d="M7840 1125 c0 -78 2 -85 20 -85 18 0 20 7 20 85 0 78 -2 85 -20 85 -18 0 -20 -7 -20 -85z"/>
 <path d="M120 1095 c0 -78 2 -85 20 -85 18 0 20 7 20 85 0 78 -2 85 -20 85 -18 0 -20 -7 -20 -85z"/>
 <path d="M7840 885 c0 -78 2 -85 20 -85 18 0 20 7 20 85 0 78 -2 85 -20 85 -18 0 -20 -7 -20 -85z"/>
 <path d="M120 855 c0 -78 2 -85 20 -85 18 0 20 7 20 85 0 78 -2 85 -20 85 -18 0 -20 -7 -20 -85z"/>
 <path d="M7840 645 c0 -78 2 -85 20 -85 18 0 20 7 20 85 0 78 -2 85 -20 85 -18 0 -20 -7 -20 -85z"/>
 <path d="M120 615 c0 -78 2 -85 20 -85 18 0 20 7 20 85 0 78 -2 85 -20 85 -18 0 -20 -7 -20 -85z"/>
 <path d="M7840 405 c0 -78 2 -85 20 -85 18 0 20 7 20 85 0 78 -2 85 -20 85 -18 0 -20 -7 -20 -85z"/>
 <path d="M120 375 c0 -78 2 -85 20 -85 18 0 20 7 20 85 0 78 -2 85 -20 85 -18 0 -20 -7 -20 -85z"/>
 <path d="M7830 245 c0 -8 -16 -30 -36 -49 -57 -56 -27 -92 34 -41 39 33 61 83 41 96 -21 13 -39 11 -39 -6z"/>
 <path d="M141 221 c-12 -8 -12 -13 3 -36 19 -29 73 -65 97 -65 16 0 29 19 29 41 0 5 -9 9 -19 9 -11 0 -33 14 -49 30 -33 32 -39 35 -61 21z"/>
 <path d="M330 140 c0 -18 7 -20 85 -20 78 0 85 2 85 20 0 18 -7 20 -85 20 -78 0 -85 -2 -85 -20z"/>
 <path d="M570 140 c0 -18 7 -20 85 -20 78 0 85 2 85 20 0 18 -7 20 -85 20 -78 0 -85 -2 -85 -20z"/>
 <path d="M810 140 c0 -18 7 -20 85 -20 78 0 85 2 85 20 0 18 -7 20 -85 20 -78 0 -85 -2 -85 -20z"/>
 <path d="M1050 140 c0 -18 7 -20 85 -20 78 0 85 2 85 20 0 18 -7 20 -85 20 -78 0 -85 -2 -85 -20z"/>
 <path d="M1290 140 c0 -18 7 -20 85 -20 78 0 85 2 85 20 0 18 -7 20 -85 20 -78 0 -85 -2 -85 -20z"/>
 <path d="M1530 140 c0 -18 7 -20 85 -20 78 0 85 2 85 20 0 18 -7 20 -85 20 -78 0 -85 -2 -85 -20z"/>
 <path d="M1770 140 c0 -18 7 -20 85 -20 78 0 85 2 85 20 0 18 -7 20 -85 20 -78 0 -85 -2 -85 -20z"/>
 <path d="M2010 140 c0 -18 7 -20 85 -20 78 0 85 2 85 20 0 18 -7 20 -85 20 -78 0 -85 -2 -85 -20z"/>
 <path d="M2250 140 c0 -18 7 -20 85 -20 78 0 85 2 85 20 0 18 -7 20 -85 20 -78 0 -85 -2 -85 -20z"/>
 <path d="M2490 140 c0 -18 7 -20 85 -20 78 0 85 2 85 20 0 18 -7 20 -85 20 -78 0 -85 -2 -85 -20z"/>
 <path d="M2730 140 c0 -18 7 -20 85 -20 78 0 85 2 85 20 0 18 -7 20 -85 20 -78 0 -85 -2 -85 -20z"/>
 <path d="M2970 140 c0 -18 7 -20 85 -20 78 0 85 2 85 20 0 18 -7 20 -85 20 -78 0 -85 -2 -85 -20z"/>
 <path d="M3210 140 c0 -18 7 -20 85 -20 78 0 85 2 85 20 0 18 -7 20 -85 20 -78 0 -85 -2 -85 -20z"/>
 <path d="M3450 140 c0 -18 7 -20 85 -20 78 0 85 2 85 20 0 18 -7 20 -85 20 -78 0 -85 -2 -85 -20z"/>
 <path d="M3690 140 c0 -18 7 -20 85 -20 78 0 85 2 85 20 0 18 -7 20 -85 20 -78 0 -85 -2 -85 -20z"/>
 <path d="M3930 140 c0 -18 7 -20 85 -20 78 0 85 2 85 20 0 18 -7 20 -85 20 -78 0 -85 -2 -85 -20z"/>
 <path d="M4170 140 c0 -18 7 -20 85 -20 78 0 85 2 85 20 0 18 -7 20 -85 20 -78 0 -85 -2 -85 -20z"/>
 <path d="M4410 140 c0 -18 7 -20 85 -20 78 0 85 2 85 20 0 18 -7 20 -85 20 -78 0 -85 -2 -85 -20z"/>
 <path d="M4650 140 c0 -18 7 -20 85 -20 78 0 85 2 85 20 0 18 -7 20 -85 20 -78 0 -85 -2 -85 -20z"/>
 <path d="M4890 140 c0 -18 7 -20 85 -20 78 0 85 2 85 20 0 18 -7 20 -85 20 -78 0 -85 -2 -85 -20z"/>
 <path d="M5130 140 c0 -18 7 -20 85 -20 78 0 85 2 85 20 0 18 -7 20 -85 20 -78 0 -85 -2 -85 -20z"/>
 <path d="M5370 140 c0 -18 7 -20 85 -20 78 0 85 2 85 20 0 18 -7 20 -85 20 -78 0 -85 -2 -85 -20z"/>
 <path d="M5610 140 c0 -18 7 -20 85 -20 78 0 85 2 85 20 0 18 -7 20 -85 20 -78 0 -85 -2 -85 -20z"/>
 <path d="M5850 140 c0 -18 7 -20 85 -20 78 0 85 2 85 20 0 18 -7 20 -85 20 -78 0 -85 -2 -85 -20z"/>
 <path d="M6090 140 c0 -18 7 -20 85 -20 78 0 85 2 85 20 0 18 -7 20 -85 20 -78 0 -85 -2 -85 -20z"/>
 <path d="M6330 140 c0 -18 7 -20 85 -20 78 0 85 2 85 20 0 18 -7 20 -85 20 -78 0 -85 -2 -85 -20z"/>
 <path d="M6570 140 c0 -18 7 -20 85 -20 78 0 85 2 85 20 0 18 -7 20 -85 20 -78 0 -85 -2 -85 -20z"/>
 <path d="M6810 140 c0 -18 7 -20 85 -20 78 0 85 2 85 20 0 18 -7 20 -85 20 -78 0 -85 -2 -85 -20z"/>
 <path d="M7050 140 c0 -18 7 -20 85 -20 78 0 85 2 85 20 0 18 -7 20 -85 20 -78 0 -85 -2 -85 -20z"/>
 <path d="M7290 140 c0 -18 7 -20 85 -20 78 0 85 2 85 20 0 18 -7 20 -85 20 -78 0 -85 -2 -85 -20z"/>
 <path d="M7530 140 c0 -18 7 -20 85 -20 78 0 85 2 85 20 0 18 -7 20 -85 20 -78 0 -85 -2 -85 -20z"/>
 </g>

</svg>
