<!DOCTYPE svg PUBLIC "-//W3C//DTD SVG 20010904//EN" "http://www.w3.org/TR/2001/REC-SVG-20010904/DTD/svg10.dtd">
<svg version="1.0" xmlns="http://www.w3.org/2000/svg" width="50px" height="50px" viewBox="0 0 1000 1000" preserveAspectRatio="xMidYMid meet">
<g id="layer101" fill="#c5c5c5" stroke="none">
 <path d="M660 935 c-84 -38 -124 -107 -118 -205 3 -54 9 -74 31 -103 46 -61 84 -81 158 -85 76 -5 129 16 172 67 78 93 54 248 -48 311 -48 29 -146 37 -195 15z m110 -130 c0 -33 2 -35 35 -35 32 0 35 -2 35 -30 0 -28 -3 -30 -35 -30 -33 0 -35 -2 -35 -35 0 -32 -2 -35 -30 -35 -28 0 -30 3 -30 35 0 33 -2 35 -35 35 -32 0 -35 2 -35 30 0 28 3 30 35 30 33 0 35 2 35 35 0 32 2 35 30 35 28 0 30 -3 30 -35z"/>
 <path d="M94 801 c-17 -11 -36 -34 -43 -52 -18 -52 -15 -600 4 -645 21 -50 62 -64 186 -64 135 0 168 16 193 93 5 15 24 17 216 17 l212 0 29 29 29 29 0 167 0 166 -40 -23 -39 -23 -3 -130 -3 -130 -349 -3 c-273 -2 -351 1 -358 10 -13 22 -10 472 4 486 8 8 63 12 180 12 l168 0 0 24 c0 13 3 31 6 40 5 14 -14 16 -177 16 -163 0 -188 -2 -215 -19z"/>
 </g>

</svg>
