<!DOCTYPE svg PUBLIC "-//W3C//DTD SVG 20010904//EN" "http://www.w3.org/TR/2001/REC-SVG-20010904/DTD/svg10.dtd">
<svg version="1.0" xmlns="http://www.w3.org/2000/svg" width="50px" height="50px" viewBox="0 0 1280 1280" preserveAspectRatio="xMidYMid meet">
<g id="layer101" fill="#f66b6b" stroke="none">
 <path d="M480 1265 c-233 -65 -407 -242 -466 -475 -24 -96 -16 -272 18 -362 71 -189 205 -323 396 -396 61 -24 80 -26 212 -26 132 0 151 2 212 26 98 37 173 85 242 154 69 69 117 144 154 242 24 61 26 80 26 212 0 132 -2 151 -26 212 -73 191 -207 325 -396 396 -86 32 -284 41 -372 17z"/>
 </g>
<g id="layer102" fill="#a2b5cb" stroke="none">
 <path d="M480 1265 c-233 -65 -407 -242 -466 -475 -24 -96 -16 -272 18 -362 71 -189 205 -323 396 -396 61 -24 80 -26 212 -26 132 0 151 2 212 26 98 37 173 85 242 154 69 69 117 144 154 242 24 61 26 80 26 212 0 132 -2 151 -26 212 -73 191 -207 325 -396 396 -86 32 -284 41 -372 17z m240 -410 l0 -105 35 0 c19 0 35 -3 35 -7 0 -5 -34 -44 -75 -88 l-75 -80 -75 80 c-41 44 -75 83 -75 88 0 4 16 7 35 7 l35 0 0 105 0 105 80 0 80 0 0 -105z"/>
 </g>
<g id="layer103" fill="#fdfdfe" stroke="none">
 <path d="M315 826 c-42 -18 -83 -69 -91 -112 -10 -52 19 -119 64 -149 20 -14 42 -25 49 -25 7 0 13 -10 13 -22 0 -60 76 -119 134 -104 18 4 26 0 34 -18 15 -34 70 -73 123 -87 121 -32 249 65 249 189 0 41 1 42 33 42 48 0 102 41 122 94 22 56 14 104 -22 147 -41 48 -78 59 -198 59 l-105 0 0 -45 c0 -45 0 -45 35 -45 19 0 35 -3 35 -7 0 -5 -34 -44 -75 -88 l-75 -80 -75 80 c-41 44 -75 83 -75 88 0 4 16 7 35 7 35 0 35 0 35 45 l0 45 -107 0 c-67 -1 -120 -6 -138 -14z"/>
 </g>

</svg>
