<!DOCTYPE svg PUBLIC "-//W3C//DTD SVG 20010904//EN" "http://www.w3.org/TR/2001/REC-SVG-20010904/DTD/svg10.dtd">
<svg version="1.0" xmlns="http://www.w3.org/2000/svg" width="120px" height="120px" viewBox="0 0 1200 1200" preserveAspectRatio="xMidYMid meet">
<g id="layer101" fill="#efffff" stroke="none">
 <path d="M440 1077 c-213 -72 -340 -251 -340 -477 0 -147 44 -256 144 -356 100 -100 209 -144 356 -144 180 0 328 78 422 224 54 84 78 169 78 276 0 227 -136 415 -349 480 -90 28 -224 27 -311 -3z m210 -327 l0 -100 100 0 100 0 0 -50 0 -50 -100 0 -100 0 0 -100 0 -100 -50 0 -50 0 0 100 0 100 -100 0 -100 0 0 50 0 50 100 0 100 0 0 100 0 100 50 0 50 0 0 -100z"/>
 </g>

</svg>