<!DOCTYPE svg PUBLIC "-//W3C//DTD SVG 20010904//EN" "http://www.w3.org/TR/2001/REC-SVG-20010904/DTD/svg10.dtd">
<svg version="1.0" xmlns="http://www.w3.org/2000/svg" width="128px" height="128px" viewBox="0 0 1280 1280" preserveAspectRatio="xMidYMid meet">
<g id="layer101" fill="#d52727" stroke="none">
 <path d="M530 1223 c-168 -28 -333 -152 -405 -306 -165 -346 6 -737 362 -833 76 -20 240 -20 317 1 302 80 478 378 411 696 -24 115 -67 193 -154 280 -120 119 -246 170 -416 168 -49 -1 -101 -4 -115 -6z"/>
 </g>
<g id="layer102" fill="#fffdfd" stroke="none">
 <path d="M392 898 l-72 -73 87 -87 88 -88 -90 -90 -90 -90 78 -77 77 -78 90 90 90 90 88 -88 87 -87 75 75 75 75 -88 88 -87 87 85 85 c47 47 85 89 85 95 0 13 -132 145 -145 145 -5 0 -48 -38 -95 -85 l-85 -85 -85 85 c-47 47 -87 85 -90 85 -3 0 -38 -33 -78 -72z"/>
 </g>

</svg>