<!DOCTYPE svg PUBLIC "-//W3C//DTD SVG 20010904//EN" "http://www.w3.org/TR/2001/REC-SVG-20010904/DTD/svg10.dtd">
<svg version="1.0" xmlns="http://www.w3.org/2000/svg" width="50px" height="50px" viewBox="0 0 1280 1280" preserveAspectRatio="xMidYMid meet">
<g id="layer101" fill="#455d8c" stroke="none">
 <path d="M480 1265 c-233 -65 -407 -242 -466 -475 -24 -96 -16 -272 18 -362 71 -189 205 -323 396 -396 61 -24 80 -26 212 -26 132 0 151 2 212 26 98 37 173 85 242 154 69 69 117 144 154 242 24 61 26 80 26 212 0 132 -2 151 -26 212 -73 191 -207 325 -396 396 -86 32 -284 41 -372 17z"/>
 </g>
<g id="layer102" fill="#fefefe" stroke="none">
 <path d="M561 1013 l-71 -78 35 -3 c34 -3 35 -4 35 -47 l0 -43 -119 -4 c-128 -3 -150 -11 -194 -69 -49 -67 -19 -175 60 -214 26 -12 42 -27 43 -38 1 -57 74 -115 130 -104 22 5 29 1 38 -17 15 -34 70 -73 123 -87 121 -32 249 65 249 189 0 41 1 42 33 42 48 0 102 41 122 94 22 56 14 104 -22 147 -41 48 -78 59 -198 59 l-105 0 0 44 c0 44 1 45 35 48 l35 3 -71 78 c-39 42 -74 77 -79 77 -5 0 -40 -35 -79 -77z"/>
 </g>
<g id="layer103" fill="#46de99" stroke="none">
 <path d="M561 1013 l-71 -78 35 -3 35 -3 0 -110 0 -109 80 0 80 0 0 109 0 110 35 3 35 3 -71 78 c-39 42 -74 77 -79 77 -5 0 -40 -35 -79 -77z"/>
 </g>

</svg>
