<!DOCTYPE svg PUBLIC "-//W3C//DTD SVG 20010904//EN" "http://www.w3.org/TR/2001/REC-SVG-20010904/DTD/svg10.dtd">
<svg version="1.0" xmlns="http://www.w3.org/2000/svg" width="50px" height="50px" viewBox="0 0 5040 5040" preserveAspectRatio="xMidYMid meet">
<g id="layer101" fill="#1c926a" stroke="none">
 <path d="M2257 5055 c-826 -100 -1550 -604 -1929 -1342 -190 -369 -278 -734 -278 -1153 0 -422 88 -787 280 -1158 278 -536 743 -957 1306 -1180 578 -230 1269 -230 1848 0 783 310 1365 1001 1536 1823 98 466 53 1001 -122 1439 -342 861 -1126 1464 -2045 1571 -154 18 -445 18 -596 0z"/>
 </g>
<g id="layer102" fill="#fdfefe" stroke="none">
 <path d="M1608 3776 c-26 -7 -55 -19 -65 -26 -55 -42 -98 -91 -119 -135 l-24 -50 0 -866 c0 -967 -3 -918 71 -1003 22 -25 65 -57 97 -73 l57 -28 669 -3 c624 -3 668 -2 662 14 -4 9 -38 68 -77 131 l-71 113 -567 0 c-428 0 -570 3 -579 12 -15 15 -17 1634 -2 1658 8 13 113 15 824 18 806 2 816 2 836 -18 19 -19 20 -32 20 -498 l0 -478 123 -196 122 -195 3 676 c2 464 0 692 -8 727 -14 67 -58 135 -111 174 -86 62 -61 60 -978 59 -641 0 -847 -3 -883 -13z"/>
 <path d="M2421 3128 c1 -62 4 -166 8 -230 l6 -118 185 116 c102 64 189 119 193 124 9 8 -35 33 -265 154 l-128 68 1 -114z"/>
 <path d="M2693 2807 c-105 -67 -194 -125 -198 -129 -4 -3 14 -37 38 -75 25 -37 170 -268 322 -513 153 -245 284 -451 290 -458 10 -11 51 11 213 113 126 79 199 131 195 139 -42 74 -657 1046 -662 1045 -3 0 -92 -55 -198 -122z"/>
 <path d="M3417 1648 c-108 -68 -197 -127 -197 -131 0 -4 21 -41 48 -82 52 -83 93 -111 144 -101 39 8 279 158 296 185 26 43 15 99 -35 177 -25 41 -49 74 -53 74 -3 0 -95 -55 -203 -122z"/>
 </g>

</svg>
