<!DOCTYPE svg PUBLIC "-//W3C//DTD SVG 20010904//EN" "http://www.w3.org/TR/2001/REC-SVG-20010904/DTD/svg10.dtd">
<svg version="1.0" xmlns="http://www.w3.org/2000/svg" width="128px" height="128px" viewBox="0 0 1280 1280" preserveAspectRatio="xMidYMid meet">
<g id="layer101" fill="#3fbdbd" stroke="none">
 <path d="M480 1259 c-144 -37 -242 -102 -354 -234 -66 -77 -116 -218 -123 -346 -28 -480 457 -817 897 -624 87 38 141 76 212 150 28 29 91 123 112 168 72 157 73 362 1 532 -18 42 -96 156 -130 190 -37 38 -149 112 -200 134 -128 53 -283 65 -415 30z m160 -354 l-74 -75 49 -50 50 -50 -58 -57 -57 -58 -50 50 -50 49 -75 -74 -75 -74 0 207 0 207 207 0 207 0 -74 -75z m340 -400 l0 -205 -207 0 -207 0 74 75 74 75 -52 53 -52 53 53 52 c29 29 59 52 68 52 8 0 33 -18 54 -40 21 -22 44 -40 50 -40 6 0 40 29 75 65 35 36 66 65 67 65 2 0 3 -92 3 -205z"/>
 </g>

</svg>