<!DOCTYPE svg PUBLIC "-//W3C//DTD SVG 20010904//EN" "http://www.w3.org/TR/2001/REC-SVG-20010904/DTD/svg10.dtd">
<svg version="1.0" xmlns="http://www.w3.org/2000/svg" width="50px" height="50px" viewBox="0 0 1280 1270" preserveAspectRatio="xMidYMid meet">
<g id="layer101" fill="#83462d" stroke="none">
 <path d="M472 1250 c-226 -61 -399 -239 -458 -470 -24 -95 -15 -262 18 -352 70 -189 205 -323 396 -396 61 -24 80 -26 212 -26 132 0 151 2 212 26 191 73 323 205 396 396 24 61 26 80 26 207 0 127 -2 146 -26 207 -74 195 -222 340 -408 400 -96 30 -271 35 -368 8z"/>
 </g>
<g id="layer102" fill="#a77944" stroke="none">
 <path d="M472 1250 c-226 -61 -399 -239 -458 -470 -24 -95 -15 -262 18 -352 70 -189 205 -323 396 -396 61 -24 80 -26 212 -26 132 0 151 2 212 26 191 72 323 205 396 396 24 61 26 80 26 207 0 127 -2 146 -26 207 -74 193 -224 340 -408 400 -96 30 -271 35 -368 8z m118 -609 c0 -208 -4 -362 -9 -365 -13 -9 -113 18 -268 72 l-43 15 0 271 0 271 73 24 c39 13 97 31 127 42 55 18 84 26 108 28 9 1 12 -77 12 -358z"/>
 <path d="M472 618 c-19 -19 -14 -56 9 -68 16 -9 26 -8 45 5 27 17 29 27 14 56 -12 21 -50 25 -68 7z"/>
 </g>
<g id="layer103" fill="#f6b93d" stroke="none">
 <path d="M472 1250 c-226 -61 -399 -239 -458 -470 -24 -95 -15 -262 18 -352 70 -189 205 -323 396 -396 61 -24 80 -26 212 -26 132 0 151 2 212 26 191 72 323 205 396 396 24 61 26 80 26 207 0 127 -2 146 -26 207 -74 193 -224 340 -408 400 -96 30 -271 35 -368 8z m120 -292 l3 -43 90 -5 90 -5 3 -87 3 -88 -58 0 c-32 0 -64 -4 -71 -9 -9 -5 -12 -31 -10 -92 l3 -84 68 -3 68 -3 -3 -87 -3 -87 -90 -5 -90 -5 -1 -38 c0 -20 -5 -41 -10 -46 -5 -5 -73 10 -162 38 l-152 46 2 280 3 279 135 42 c178 55 178 55 182 2z"/>
 <path d="M472 618 c-19 -19 -14 -56 9 -68 16 -9 26 -8 45 5 27 17 29 27 14 56 -12 21 -50 25 -68 7z"/>
 </g>
<g id="layer104" fill="#f5f5f4" stroke="none">
 <path d="M832 808 c-7 -7 -12 -27 -12 -45 l0 -33 -77 0 c-43 0 -84 -4 -91 -9 -9 -5 -12 -31 -10 -92 l3 -84 88 -3 c86 -3 87 -3 87 -28 0 -29 16 -64 30 -64 10 0 149 157 157 177 5 12 -142 193 -156 193 -4 0 -12 -5 -19 -12z"/>
 </g>

</svg>
