<!DOCTYPE svg PUBLIC "-//W3C//DTD SVG 20010904//EN" "http://www.w3.org/TR/2001/REC-SVG-20010904/DTD/svg10.dtd">
<svg version="1.0" xmlns="http://www.w3.org/2000/svg" width="256px" height="256px" viewBox="0 0 2560 2560" preserveAspectRatio="xMidYMid meet">
<g id="layer101" fill="#460015" stroke="none">
 <path d="M1548 2540 c-151 -37 -277 -111 -393 -229 l-59 -61 -399 0 -399 0 -34 -34 -34 -34 0 -736 0 -736 -64 0 c-116 0 -166 -38 -166 -124 0 -31 6 -61 16 -74 32 -46 60 -52 259 -52 l185 0 0 -185 c0 -146 3 -192 15 -215 32 -62 10 -60 571 -60 l512 0 30 25 c49 41 53 65 50 258 l-3 176 197 3 198 3 31 31 c62 62 43 167 -36 200 -19 8 -62 14 -95 14 l-60 0 0 115 0 115 25 0 c43 0 192 56 266 100 137 82 269 230 334 375 85 193 87 445 5 645 -59 143 -182 291 -312 374 -72 46 -189 93 -276 112 -95 20 -270 17 -364 -6z m-158 -2190 l0 -110 -340 0 -340 0 0 110 0 110 340 0 340 0 0 -110z"/>
 </g>
<g id="layer102" fill="#5d5d63" stroke="none">
 <path d="M1548 2540 c-151 -37 -277 -111 -393 -229 l-59 -61 -399 0 -399 0 -34 -34 -34 -34 0 -736 0 -736 -64 0 c-116 0 -166 -38 -166 -124 0 -31 6 -61 16 -74 32 -46 60 -52 259 -52 l185 0 0 -185 c0 -146 3 -192 15 -215 32 -62 10 -60 571 -60 l512 0 30 25 c49 41 53 65 50 258 l-3 176 197 3 198 3 31 31 c62 62 43 167 -36 200 -19 8 -62 14 -95 14 l-60 0 0 115 0 115 25 0 c43 0 192 56 266 100 137 82 269 230 334 375 85 192 87 445 6 643 -101 245 -327 432 -589 488 -95 20 -270 17 -364 -6z m90 -534 c15 -8 45 -33 67 -55 l39 -41 46 44 c56 54 78 66 125 66 52 0 105 -53 105 -105 0 -47 -12 -69 -66 -125 l-44 -46 41 -39 c49 -48 69 -84 69 -124 0 -70 -44 -111 -119 -111 -34 0 -48 7 -98 54 l-58 54 -57 -53 c-78 -72 -132 -80 -187 -24 -56 55 -49 109 25 188 l53 58 -50 49 c-61 60 -74 100 -52 155 25 63 98 88 161 55z m-248 -1656 l0 -110 -340 0 -340 0 0 110 0 110 340 0 340 0 0 -110z"/>
 </g>
<g id="layer103" fill="#c60a32" stroke="none">
 <path d="M1548 2540 c-151 -37 -277 -111 -393 -229 -39 -41 -67 -61 -83 -61 -21 0 -23 -4 -21 -37 1 -27 -11 -64 -39 -123 -60 -128 -76 -203 -75 -350 0 -145 21 -236 77 -349 l36 -71 0 -430 0 -430 170 0 170 0 0 -110 0 -110 -170 0 -170 0 0 -120 0 -120 254 0 254 0 30 25 c49 41 53 65 50 258 l-3 176 197 3 198 3 31 31 c62 62 43 167 -36 200 -19 8 -62 14 -95 14 l-60 0 0 115 0 115 25 0 c43 0 192 56 266 100 137 82 269 230 334 375 85 192 87 445 6 643 -101 245 -327 432 -589 488 -95 20 -270 17 -364 -6z m90 -534 c15 -8 45 -33 67 -55 l39 -41 46 44 c56 54 78 66 125 66 52 0 105 -53 105 -105 0 -47 -12 -69 -66 -125 l-44 -46 41 -39 c49 -48 69 -84 69 -124 0 -70 -44 -111 -119 -111 -34 0 -48 7 -98 54 l-58 54 -57 -53 c-78 -72 -132 -80 -187 -24 -56 55 -49 109 25 188 l53 58 -50 49 c-61 60 -74 100 -52 155 25 63 98 88 161 55z"/>
 </g>
<g id="layer104" fill="#7c7a85" stroke="none">
 <path d="M1050 2213 l0 -38 25 30 c31 38 31 45 0 45 -22 0 -25 -4 -25 -37z"/>
 <path d="M1050 887 l0 -427 170 0 170 0 0 -110 0 -110 -170 0 -170 0 0 -120 0 -120 254 0 254 0 30 25 c49 41 53 65 50 258 l-3 176 197 3 198 3 31 31 c62 62 43 167 -36 200 -19 8 -62 14 -95 14 l-60 0 0 113 0 112 -122 1 c-134 1 -217 16 -320 60 -121 51 -233 137 -319 245 -28 35 -53 66 -55 68 -2 2 -4 -188 -4 -422z"/>
 </g>
<g id="layer105" fill="#a9a8ae" stroke="none">
 <path d="M1050 2213 c1 -36 1 -37 16 -18 35 45 36 55 9 55 -22 0 -25 -4 -25 -37z"/>
 <path d="M1050 1006 l0 -306 410 0 410 0 0 118 0 117 -133 0 c-155 1 -218 15 -352 80 -107 51 -210 135 -282 229 l-53 68 0 -306z"/>
 </g>

</svg>